<svg xmlns="http://www.w3.org/2000/svg" viewBox="0 0 107.49 117.7">
<defs>
<style>.cls-1{fill:#009299;}</style></defs>
<path class="cls-1" d="M47.24,117.37l-6.14-3.24a2.84,2.84,0,0,1-1.18-3.83L47,97a2.83,2.83,0,0,1,2.5-1.52H52.9c24.19,0,44-20.16,42.51-44.31A41.76,41.76,0,0,0,52.11,12,42,42,0,0,0,12.05,51.68,41.47,41.47,0,0,0,31.69,89.2a2.82,2.82,0,0,1,1,3.74l-3,5.59a2.84,2.84,0,0,1-4,1.08A53.39,53.39,0,0,1,.06,51.1,54,54,0,0,1,51.66,0a53.75,53.75,0,0,1,55.83,53.7c0,27.59-24.93,50.47-51.73,53.49a.1.1,0,0,0-.09.06l-4.59,8.88A2.83,2.83,0,0,1,47.24,117.37Z"/>
<path class="cls-1" d="M52.3,39.69,32.49,51.41a2.84,2.84,0,0,0-1.39,2.44v6.82a2.83,2.83,0,0,0,4.28,2.44l16.92-10a2.87,2.87,0,0,1,2.89,0l16.91,10a2.83,2.83,0,0,0,4.28-2.44V53.85A2.84,2.84,0,0,0,75,51.41L55.19,39.69A2.83,2.83,0,0,0,52.3,39.69Z"/>
</svg>